<svg xmlns="http://www.w3.org/2000/svg" style="display:none">

  <symbol id="dado" viewBox="0 0 48 48" fill="none" stroke="currentColor" stroke-width="2.2" stroke-linejoin="round">
    <path d="M24 4 L42 14 V34 L24 44 L6 34 V14 Z" stroke-linecap="round"/>
    <path d="M24 4 V24 M24 24 L42 14 M24 24 L6 14 M24 24 V44" stroke-linecap="round"/>
    <circle cx="24" cy="18" r="1.6" fill="currentColor" stroke="none"/>
    <circle cx="15" cy="29" r="1.6" fill="currentColor" stroke="none"/>
    <circle cx="33" cy="29" r="1.6" fill="currentColor" stroke="none"/>
  </symbol>

  <symbol id="deckbox" viewBox="0 0 48 48" fill="none" stroke="currentColor" stroke-width="2.2" stroke-linejoin="round" stroke-linecap="round">
    <rect x="7" y="16" width="34" height="24" rx="3"/>
    <path d="M7 22 H41"/>
    <path d="M16 16 V10 a3 3 0 0 1 3-3 h10 a3 3 0 0 1 3 3 v6"/>
    <rect x="20" y="26" width="8" height="6" rx="1"/>
  </symbol>

  <symbol id="ficharios" viewBox="0 0 48 48" fill="none" stroke="currentColor" stroke-width="2.2" stroke-linejoin="round" stroke-linecap="round">
    <rect x="9" y="6" width="30" height="36" rx="2.5"/>
    <path d="M9 14 H5 M9 22 H5 M9 30 H5 M9 38 H5"/>
    <path d="M18 6 V42 M30 6 V42" stroke-dasharray="1 5"/>
  </symbol>

  <symbol id="sleeve" viewBox="0 0 48 48" fill="none" stroke="currentColor" stroke-width="2.2" stroke-linejoin="round" stroke-linecap="round">
    <rect x="12" y="4" width="24" height="34" rx="3"/>
    <rect x="16" y="8" width="16" height="26" rx="1.5" stroke-dasharray="2 3"/>
    <path d="M12 38 h24" />
  </symbol>

  <symbol id="search" viewBox="0 0 24 24" fill="none" stroke="currentColor" stroke-width="2" stroke-linecap="round">
    <circle cx="11" cy="11" r="7"/>
    <path d="M21 21 L16.65 16.65"/>
  </symbol>

  <symbol id="cart" viewBox="0 0 24 24" fill="none" stroke="currentColor" stroke-width="2" stroke-linecap="round" stroke-linejoin="round">
    <circle cx="9" cy="20" r="1.4" fill="currentColor" stroke="none"/>
    <circle cx="18" cy="20" r="1.4" fill="currentColor" stroke="none"/>
    <path d="M2.5 3h2l2.6 12.6a2 2 0 0 0 2 1.6h8a2 2 0 0 0 2-1.6L21 7H6"/>
  </symbol>

  <symbol id="leaf" viewBox="0 0 48 48" fill="none" stroke="currentColor" stroke-width="2" stroke-linejoin="round">
    <path d="M24 5 C34 9 41 18 39 30 C30 33 18 33 10 26 C9 15 15 8 24 5 Z"/>
    <path d="M24 5 C22 17 22 30 15 41 M24 20 C29 20 34 22 37 26 M20 24 C16 25 13 27 10 30" stroke-linecap="round"/>
  </symbol>

  <symbol id="play" viewBox="0 0 24 24" fill="currentColor">
    <path d="M8 5 L19 12 L8 19 Z"/>
  </symbol>

</svg>
